<?xml version="1.0" standalone="no"?>
<!DOCTYPE svg PUBLIC "-//W3C//DTD SVG 20010904//EN"
 "http://www.w3.org/TR/2001/REC-SVG-20010904/DTD/svg10.dtd">
<svg version="1.0" xmlns="http://www.w3.org/2000/svg"
 width="1024.000000pt" height="1024.000000pt" viewBox="0 0 1024.000000 1024.000000"
 preserveAspectRatio="xMidYMid meet">
<metadata>
Created by potrace 1.14, written by Peter Selinger 2001-2017
</metadata>
<g transform="translate(0.000000,1024.000000) scale(0.100000,-0.100000)"
fill="#000000" stroke="none">
<path d="M2165 10233 c-572 -39 -1124 -277 -1480 -638 -201 -204 -317 -409
-382 -676 -16 -70 -17 -272 -21 -3894 -2 -2500 1 -3865 7 -3950 24 -310 140
-560 353 -761 153 -145 322 -235 546 -291 62 -16 307 -17 3292 -21 2331 -2
3252 0 3324 8 185 21 375 93 531 201 86 59 223 198 284 287 97 144 169 334
190 507 15 122 15 6380 1 6510 -36 308 -184 579 -422 769 -105 84 -288 177
-423 213 l-100 28 -3130 5 c-2852 5 -3134 7 -3171 22 -80 32 -121 57 -163 103
-103 112 -132 284 -80 470 65 229 305 408 652 486 251 56 71 53 3332 57 2264
2 3022 0 3090 -8 257 -34 486 -149 669 -337 148 -153 247 -337 299 -558 l21
-90 3 -3408 3 -3408 77 53 c157 108 292 268 378 451 62 130 93 254 106 422 7
95 9 1086 6 3115 -4 3240 0 3017 -57 3235 -159 602 -654 1021 -1295 1095 -83
9 -6304 12 -6440 3z"/>
</g>
</svg>
